<svg version="1.1" xmlns="http://www.w3.org/2000/svg" xmlns:xlink="http://www.w3.org/1999/xlink" style="" xml:space="preserve" width="180" height="23"><rect id="backgroundrect" width="100%" height="100%" x="0" y="0" fill="none" stroke="none" style="" class=""/>

<g class="currentLayer" style=""><title>Layer 1</title><g fill="#fff" id="svg_1" class="">
	<g id="svg_2">
		<path d="M78.67890930175781,21.665000915527344 c-1.399999976158142,-0.7200000286102295 -2.4800000190734863,-1.75 -3.240000009536743,-3.0799999237060547 c-0.7599999904632568,-1.3300000429153442 -1.149999976158142,-2.9000000953674316 -1.149999976158142,-4.699999809265137 c0,-1.7999999523162842 0.3799999952316284,-3.380000114440918 1.149999976158142,-4.71999979019165 c0.7599999904632568,-1.340000033378601 1.840000033378601,-2.369999885559082 3.240000009536743,-3.0999999046325684 c1.399999976158142,-0.7200000286102295 3.009999990463257,-1.0800000429153442 4.829999923706055,-1.0800000429153442 c2.359999895095825,0 4.320000171661377,0.5400000214576721 5.900000095367432,1.6100000143051147 v3.509999990463257 c-0.7200000286102295,-0.6000000238418579 -1.5299999713897705,-1.0399999618530273 -2.450000047683716,-1.2999999523162842 c-0.9200000166893005,-0.27000001072883606 -1.9600000381469727,-0.4000000059604645 -3.130000114440918,-0.4000000059604645 c-1.7699999809265137,0 -3.1700000762939453,0.49000000953674316 -4.199999809265137,1.4700000286102295 c-1.0299999713897705,0.9800000190734863 -1.5499999523162842,2.319999933242798 -1.5499999523162842,4.010000228881836 c0,1.7100000381469727 0.5199999809265137,3.049999952316284 1.559999942779541,4.03000020980835 c1.0399999618530273,0.9800000190734863 2.440000057220459,1.4700000286102295 4.190000057220459,1.4700000286102295 c1.2000000476837158,0 2.2699999809265137,-0.14000000059604645 3.190000057220459,-0.4300000071525574 c0.9300000071525574,-0.2800000011920929 1.7899999618530273,-0.7400000095367432 2.5799999237060547,-1.3799999952316284 v3.509999990463257 c-1.5,1.1100000143051147 -3.5299999713897705,1.659999966621399 -6.090000152587891,1.659999966621399 C81.68890380859375,22.75499725341797 80.07890319824219,22.38500213623047 78.67890930175781,21.665000915527344 z" id="svg_3"/>
		<path d="M92.16890716552734,21.665000915527344 c-0.8999999761581421,-0.7200000286102295 -1.350000023841858,-1.7100000381469727 -1.350000023841858,-2.9600000381469727 c0,-1.2999999523162842 0.4300000071525574,-2.309999942779541 1.2899999618530273,-3.0299999713897705 c0.8600000143051147,-0.7200000286102295 2.0799999237060547,-1.0800000429153442 3.6600000858306885,-1.0800000429153442 c0.699999988079071,0 1.3600000143051147,0.07000000029802322 2,0.2199999988079071 c0.6299999952316284,0.15000000596046448 1.190000057220459,0.3499999940395355 1.6799999475479126,0.6100000143051147 v-0.28999999165534973 c0,-0.7300000190734863 -0.25999999046325684,-1.2699999809265137 -0.7799999713897705,-1.6100000143051147 c-0.5199999809265137,-0.3400000035762787 -1.3200000524520874,-0.5099999904632568 -2.390000104904175,-0.5099999904632568 c-1.4299999475479126,0 -2.75,0.27000001072883606 -3.950000047683716,0.800000011920929 v-2.680000066757202 c0.5199999809265137,-0.23000000417232513 1.190000057220459,-0.41999998688697815 2.0199999809265137,-0.5699999928474426 c0.8299999833106995,-0.15000000596046448 1.659999966621399,-0.23000000417232513 2.490000009536743,-0.23000000417232513 c2.109999895095825,0 3.690000057220459,0.4300000071525574 4.730000019073486,1.2999999523162842 c1.0399999618530273,0.8700000047683716 1.559999942779541,2.0799999237060547 1.559999942779541,3.640000104904175 v7.119999885559082 h-3.4600000381469727 v-1.0700000524520874 c-0.9900000095367432,0.9599999785423279 -2.319999933242798,1.440000057220459 -4,1.440000057220459 C94.23890686035156,22.75499725341797 93.06890869140625,22.38500213623047 92.16890716552734,21.665000915527344 zM98.29890441894531,19.974998474121094 c0.49000000953674316,-0.23000000417232513 0.8700000047683716,-0.5400000214576721 1.149999976158142,-0.949999988079071 v-1.1699999570846558 c-0.8299999833106995,-0.550000011920929 -1.7400000095367432,-0.8299999833106995 -2.7300000190734863,-0.8299999833106995 c-0.6800000071525574,0 -1.2100000381469727,0.14000000059604645 -1.5700000524520874,0.4300000071525574 c-0.3700000047683716,0.2800000011920929 -0.550000011920929,0.699999988079071 -0.550000011920929,1.2599999904632568 c0,0.5199999809265137 0.18000000715255737,0.9200000166893005 0.5400000214576721,1.190000057220459 c0.36000001430511475,0.2800000011920929 0.8700000047683716,0.4099999964237213 1.5399999618530273,0.4099999964237213 C97.26890563964844,20.31500244140625 97.80890655517578,20.19499969482422 98.29890441894531,19.974998474121094 z" id="svg_4"/>
		<path d="M105.55890655517578,4.375 h3.680000066757202 v18.010000228881836 h-3.680000066757202 V4.375 z" id="svg_5"/>
		<path d="M113.23890686035156,21.125 c-1.2799999713897705,-1.0800000429153442 -1.9299999475479126,-2.5999999046325684 -1.9299999475479126,-4.550000190734863 c0,-1.9299999475479126 0.5699999928474426,-3.4600000381469727 1.7200000286102295,-4.579999923706055 c1.149999976158142,-1.1200000047683716 2.7799999713897705,-1.6799999475479126 4.909999847412109,-1.6799999475479126 c1.399999976158142,0 2.5799999237060547,0.25999999046325684 3.559999942779541,0.7799999713897705 c0.9700000286102295,0.5199999809265137 1.7100000381469727,1.2400000095367432 2.2200000286102295,2.1600000858306885 c0.5,0.9200000166893005 0.7599999904632568,1.9500000476837158 0.7599999904632568,3.109999895095825 v1.4900000095367432 h-9.649999618530273 c0.25999999046325684,1.5 1.659999966621399,2.240000009536743 4.190000057220459,2.240000009536743 c0.75,0 1.5199999809265137,-0.07000000029802322 2.319999933242798,-0.20000000298023224 c0.800000011920929,-0.12999999523162842 1.4900000095367432,-0.3100000023841858 2.069999933242798,-0.5400000214576721 v2.5799999237060547 c-0.5699999928474426,0.23999999463558197 -1.2999999523162842,0.4399999976158142 -2.190000057220459,0.5799999833106995 c-0.8899999856948853,0.15000000596046448 -1.7899999618530273,0.2199999988079071 -2.680000066757202,0.2199999988079071 C116.27890014648438,22.75499725341797 114.51890563964844,22.214996337890625 113.23890686035156,21.125 zM120.98890686035156,15.464996337890625 c-0.05000000074505806,-0.7799999713897705 -0.3400000035762787,-1.3799999952316284 -0.8799999952316284,-1.8200000524520874 c-0.5400000214576721,-0.4300000071525574 -1.2799999713897705,-0.6499999761581421 -2.2200000286102295,-0.6499999761581421 c-0.9300000071525574,0 -1.659999966621399,0.2199999988079071 -2.190000057220459,0.6600000262260437 c-0.5400000214576721,0.4399999976158142 -0.8299999833106995,1.0399999618530273 -0.8799999952316284,1.7999999523162842 H120.98890686035156 z" id="svg_6"/>
		<path d="M126.51890563964844,10.685001373291016 h3.559999942779541 v1.440000057220459 c0.5400000214576721,-0.6000000238418579 1.1699999570846558,-1.0499999523162842 1.909999966621399,-1.350000023841858 c0.7400000095367432,-0.30000001192092896 1.5099999904632568,-0.44999998807907104 2.3299999237060547,-0.44999998807907104 c1.590000033378601,0 2.7799999713897705,0.4300000071525574 3.569999933242798,1.2799999713897705 c0.7900000214576721,0.8500000238418579 1.1799999475479126,2 1.1799999475479126,3.450000047683716 v7.340000152587891 h-3.680000066757202 v-6.920000076293945 c0,-1.5099999904632568 -0.699999988079071,-2.2699999809265137 -2.0999999046325684,-2.2699999809265137 c-0.6200000047683716,0 -1.190000057220459,0.15000000596046448 -1.7300000190734863,0.44999998807907104 c-0.5400000214576721,0.30000001192092896 -0.9900000095367432,0.7400000095367432 -1.3600000143051147,1.3300000429153442 v7.409999847412109 h-3.680000066757202 V10.685001373291016 z" id="svg_7"/>
		<path d="M144.0089111328125,21.985000610351562 c-0.9300000071525574,-0.5099999904632568 -1.6699999570846558,-1.2300000190734863 -2.190000057220459,-2.1700000762939453 c-0.5299999713897705,-0.9300000071525574 -0.7900000214576721,-2.0199999809265137 -0.7900000214576721,-3.25 c0,-1.2200000286102295 0.25999999046325684,-2.299999952316284 0.7799999713897705,-3.240000009536743 c0.5199999809265137,-0.9399999976158142 1.25,-1.6799999475479126 2.190000057220459,-2.2100000381469727 c0.9399999976158142,-0.5299999713897705 2.009999990463257,-0.7900000214576721 3.2200000286102295,-0.7900000214576721 c0.8799999952316284,0 1.6799999475479126,0.11999999731779099 2.4100000858306885,0.3700000047683716 c0.7300000190734863,0.23999999463558197 1.350000023841858,0.5899999737739563 1.850000023841858,1.0499999523162842 V4.375 h3.680000066757202 v18.010000228881836 h-3.559999942779541 v-1.2699999809265137 c-0.6000000238418579,0.5699999928474426 -1.2599999904632568,0.9800000190734863 -1.9600000381469727,1.2400000095367432 c-0.7099999785423279,0.25999999046325684 -1.5199999809265137,0.38999998569488525 -2.4200000762939453,0.38999998569488525 C146.0089111328125,22.75499725341797 144.93890380859375,22.49500274658203 144.0089111328125,21.985000610351562 zM150.19891357421875,19.285003662109375 c0.5899999737739563,-0.4099999964237213 1.0199999809265137,-0.949999988079071 1.2799999713897705,-1.6299999952316284 v-2.2200000286102295 c-0.23000000417232513,-0.6700000166893005 -0.6499999761581421,-1.2100000381469727 -1.2599999904632568,-1.6200000047683716 c-0.6100000143051147,-0.4099999964237213 -1.2999999523162842,-0.6200000047683716 -2.059999942779541,-0.6200000047683716 c-0.9900000095367432,0 -1.7999999523162842,0.3100000023841858 -2.430000066757202,0.9300000071525574 c-0.6299999952316284,0.6200000047683716 -0.9399999976158142,1.4299999475479126 -0.9399999976158142,2.440000057220459 c0,1.0099999904632568 0.3100000023841858,1.8200000524520874 0.9399999976158142,2.430000066757202 c0.6299999952316284,0.6100000143051147 1.4299999475479126,0.9100000262260437 2.430000066757202,0.9100000262260437 C148.9289093017578,19.894996643066406 149.59890747070312,19.69499969482422 150.19891357421875,19.285003662109375 z" id="svg_8"/>
		<path d="M158.21890258789062,21.665000915527344 c-0.8999999761581421,-0.7200000286102295 -1.350000023841858,-1.7100000381469727 -1.350000023841858,-2.9600000381469727 c0,-1.2999999523162842 0.4300000071525574,-2.309999942779541 1.2899999618530273,-3.0299999713897705 c0.8600000143051147,-0.7200000286102295 2.0799999237060547,-1.0800000429153442 3.6600000858306885,-1.0800000429153442 c0.699999988079071,0 1.3600000143051147,0.07000000029802322 2,0.2199999988079071 c0.6299999952316284,0.15000000596046448 1.190000057220459,0.3499999940395355 1.6799999475479126,0.6100000143051147 v-0.28999999165534973 c0,-0.7300000190734863 -0.25999999046325684,-1.2699999809265137 -0.7799999713897705,-1.6100000143051147 c-0.5199999809265137,-0.3400000035762787 -1.3200000524520874,-0.5099999904632568 -2.390000104904175,-0.5099999904632568 c-1.4299999475479126,0 -2.75,0.27000001072883606 -3.950000047683716,0.800000011920929 v-2.680000066757202 c0.5199999809265137,-0.23000000417232513 1.190000057220459,-0.41999998688697815 2.0199999809265137,-0.5699999928474426 c0.8299999833106995,-0.15000000596046448 1.659999966621399,-0.23000000417232513 2.490000009536743,-0.23000000417232513 c2.109999895095825,0 3.690000057220459,0.4300000071525574 4.730000019073486,1.2999999523162842 c1.0399999618530273,0.8700000047683716 1.559999942779541,2.0799999237060547 1.559999942779541,3.640000104904175 v7.119999885559082 h-3.4600000381469727 v-1.0700000524520874 c-0.9900000095367432,0.9599999785423279 -2.319999933242798,1.440000057220459 -4,1.440000057220459 C160.27890014648438,22.75499725341797 159.11891174316406,22.38500213623047 158.21890258789062,21.665000915527344 zM164.3389129638672,19.974998474121094 c0.49000000953674316,-0.23000000417232513 0.8700000047683716,-0.5400000214576721 1.149999976158142,-0.949999988079071 v-1.1699999570846558 c-0.8299999833106995,-0.550000011920929 -1.7400000095367432,-0.8299999833106995 -2.7300000190734863,-0.8299999833106995 c-0.6800000071525574,0 -1.2100000381469727,0.14000000059604645 -1.5700000524520874,0.4300000071525574 c-0.3700000047683716,0.2800000011920929 -0.550000011920929,0.699999988079071 -0.550000011920929,1.2599999904632568 c0,0.5199999809265137 0.18000000715255737,0.9200000166893005 0.5400000214576721,1.190000057220459 c0.36000001430511475,0.2800000011920929 0.8700000047683716,0.4099999964237213 1.5399999618530273,0.4099999964237213 C163.30889892578125,20.31500244140625 163.85890197753906,20.19499969482422 164.3389129638672,19.974998474121094 z" id="svg_9"/>
		<path d="M171.60890197753906,10.685001373291016 h3.559999942779541 v1.6799999475479126 c0.4699999988079071,-0.5699999928474426 1.1299999952316284,-1 1.9700000286102295,-1.2999999523162842 c0.8399999737739563,-0.30000001192092896 1.7999999523162842,-0.44999998807907104 2.880000114440918,-0.44999998807907104 v2.799999952316284 c-1.1200000047683716,0 -2.109999895095825,0.17000000178813934 -2.9600000381469727,0.5099999904632568 c-0.8500000238418579,0.3400000035762787 -1.440000057220459,0.8600000143051147 -1.7699999809265137,1.559999942779541 v6.900000095367432 h-3.680000066757202 V10.685001373291016 z" id="svg_10"/>
	</g>
	<g id="svg_11">
		<path d="M0.018906593322753906,4.9850006103515625 h2.490000009536743 v7.309999942779541 h8.899999618530273 v-7.309999942779541 H13.87890625 v17.040000915527344 h-2.490000009536743 v-7.630000114440918 h-8.899999618530273 v7.630000114440918 h-2.490000009536743 V4.9850006103515625 z" id="svg_12"/>
		<path d="M18.398906707763672,20.764999389648438 c-1.2300000190734863,-1.0800000429153442 -1.840000033378601,-2.5999999046325684 -1.840000033378601,-4.570000171661377 c0,-1.9199999570846558 0.550000011920929,-3.440000057220459 1.6399999856948853,-4.559999942779541 c1.100000023841858,-1.1200000047683716 2.6600000858306885,-1.6799999475479126 4.690000057220459,-1.6799999475479126 c1.350000023841858,0 2.490000009536743,0.25999999046325684 3.440000057220459,0.7699999809265137 c0.9399999976158142,0.5099999904632568 1.649999976158142,1.2200000286102295 2.130000114440918,2.119999885559082 c0.47999998927116394,0.8999999761581421 0.7200000286102295,1.9299999475479126 0.7200000286102295,3.0799999237060547 v1.2200000286102295 H18.898906707763672 c0.07999999821186066,1.1100000143051147 0.550000011920929,1.9299999475479126 1.399999976158142,2.4700000286102295 c0.8500000238418579,0.5400000214576721 2.009999990463257,0.8199999928474426 3.4700000286102295,0.8199999928474426 c0.75,0 1.5,-0.07000000029802322 2.2699999809265137,-0.20999999344348907 c0.7599999904632568,-0.14000000059604645 1.440000057220459,-0.3199999928474426 2.0199999809265137,-0.550000011920929 v1.9700000286102295 c-0.5199999809265137,0.20999999344348907 -1.2100000381469727,0.38999998569488525 -2.059999942779541,0.5199999809265137 c-0.8500000238418579,0.14000000059604645 -1.690000057220459,0.20999999344348907 -2.5199999809265137,0.20999999344348907 C21.318904876708984,22.38500213623047 19.62890625,21.845001220703125 18.398906707763672,20.764999389648438 zM26.868907928466797,15.415000915527344 c-0.029999999329447746,-1.1100000143051147 -0.38999998569488525,-1.9600000381469727 -1.0800000429153442,-2.569999933242798 c-0.6899999976158142,-0.6100000143051147 -1.6699999570846558,-0.9100000262260437 -2.940000057220459,-0.9100000262260437 c-1.2300000190734863,0 -2.190000057220459,0.3199999928474426 -2.880000114440918,0.949999988079071 c-0.6800000071525574,0.6299999952316284 -1.0399999618530273,1.4800000190734863 -1.0700000524520874,2.5299999713897705 H26.868907928466797 z" id="svg_13"/>
		<path d="M45.73890686035156,4.005001068115234 h2.4600000381469727 v18.010000228881836 h-2.4600000381469727 V4.005001068115234 z" id="svg_14"/>
		<path d="M53.12890625,21.36499786376953 c-0.6399999856948853,-0.6800000071525574 -0.9599999785423279,-1.649999976158142 -0.9599999785423279,-2.9000000953674316 v-6.239999771118164 h-1.7799999713897705 v-1.899999976158142 h1.7799999713897705 v-3.509999990463257 h2.490000009536743 v3.509999990463257 h2.880000114440918 v1.899999976158142 h-2.880000114440918 v6.070000171661377 c0,0.7799999713897705 0.15000000596046448,1.3300000429153442 0.44999998807907104,1.659999966621399 c0.30000001192092896,0.33000001311302185 0.8500000238418579,0.49000000953674316 1.649999976158142,0.49000000953674316 c0.4699999988079071,0 0.9399999976158142,-0.10999999940395355 1.409999966621399,-0.3199999928474426 v1.9500000476837158 c-0.6200000047683716,0.20999999344348907 -1.3799999952316284,0.3199999928474426 -2.2899999618530273,0.3199999928474426 C54.68890380859375,22.38500213623047 53.76890563964844,22.044998168945312 53.12890625,21.36499786376953 z" id="svg_15"/>
		<path d="M60.478904724121094,4.005001068115234 h2.4600000381469727 v7.920000076293945 c1.1200000047683716,-1.3200000524520874 2.619999885559082,-1.9700000286102295 4.480000019073486,-1.9700000286102295 c1.559999942779541,0 2.7200000286102295,0.4099999964237213 3.490000009536743,1.2400000095367432 c0.7599999904632568,0.8299999833106995 1.149999976158142,1.940000057220459 1.149999976158142,3.3399999141693115 v7.480000019073486 h-2.4600000381469727 v-7.239999771118164 c0,-1.899999976158142 -0.9100000262260437,-2.8499999046325684 -2.7300000190734863,-2.8499999046325684 c-0.7799999713897705,0 -1.5099999904632568,0.18000000715255737 -2.180000066757202,0.550000011920929 c-0.6700000166893005,0.3700000047683716 -1.2599999904632568,0.9200000166893005 -1.7400000095367432,1.6699999570846558 v7.869999885559082 H60.478904724121094 V4.005001068115234 z" id="svg_16"/>
		<path class="leaf" fill="#47AA4E" d="M32.55890655517578,12.075000762939453 c0,0 1.399999976158142,0.05000000074505806 2.0199999809265137,-0.10000000149011612 c0.6100000143051147,-0.10999999940395355 1.2400000095367432,-0.17000000178813934 1.8799999952316284,-0.17000000178813934 c1.2000000476837158,0 2.0799999237060547,0.2199999988079071 2.640000104904175,0.6700000166893005 c0.5600000023841858,0.44999998807907104 0.8399999737739563,1.1299999952316284 0.8399999737739563,2.059999942779541 v0.6100000143051147 c-1.1200000047683716,-0.6499999761581421 -2.490000009536743,-0.9700000286102295 -4.090000152587891,-0.9700000286102295 c-1.5099999904632568,0 -2.680000066757202,0.3499999940395355 -3.5,1.059999942779541 c-0.8199999928474426,0.7099999785423279 -1.2300000190734863,1.7100000381469727 -1.2300000190734863,3.009999990463257 c0,1.2400000095367432 0.4300000071525574,2.2100000381469727 1.2799999713897705,2.940000057220459 c0.8500000238418579,0.7200000286102295 1.9900000095367432,1.0800000429153442 3.4000000953674316,1.0800000429153442 c0.9900000095367432,0 1.8300000429153442,-0.14000000059604645 2.5199999809265137,-0.4300000071525574 c0.6899999976158142,-0.2800000011920929 1.2899999618530273,-0.699999988079071 1.7899999618530273,-1.2599999904632568 v1.3200000524520874 h2.319999933242798 v-7.239999771118164 c0,-1.5099999904632568 -0.4699999988079071,-2.690000057220459 -1.399999976158142,-3.549999952316284 c-0.9300000071525574,-0.8500000238418579 -2.369999885559082,-1.2699999809265137 -4.300000190734863,-1.2799999713897705 c-0.17000000178813934,0 -0.3799999952316284,0.009999999776482582 -0.3799999952316284,0.009999999776482582 c-0.11999999731779099,0.009999999776482582 -0.25,0.009999999776482582 -0.3700000047683716,0.009999999776482582 c-0.1899999976158142,-0.009999999776482582 -0.38999998569488525,-0.029999999329447746 -0.6200000047683716,-0.029999999329447746 c-0.8100000023841858,-0.019999999552965164 -2.109999895095825,-0.4699999988079071 -2.5999999046325684,-0.6299999952316284 c-2.200000047683716,-1.0299999713897705 -3.490000009536743,-3 -4.03000020980835,-3.5 l-3.890000104904175,-3.5899999141693115 c2.3499999046325684,1.2400000095367432 5.150000095367432,3.609999895095825 5.28000020980835,3.759999990463257 c0.4099999964237213,0.46000000834465027 3.0299999713897705,2.240000009536743 3.0299999713897705,2.240000009536743 s1.2999999523162842,0.75 2.5,0.8100000023841858 c1.6100000143051147,0.07000000029802322 2.180000066757202,-0.6600000262260437 2.180000066757202,-0.6600000262260437 c0.6000000238418579,-0.8100000023841858 -0.28999999165534973,-2.390000104904175 -1.100000023841858,-3.690000057220459 c-1.6299999952316284,-2.619999885559082 -3.049999952316284,-3.2100000381469727 -3.049999952316284,-3.2100000381469727 l0,0 c-1.2000000476837158,-0.7300000190734863 -2.9200000762939453,-1.350000023841858 -5.079999923706055,-1.3300000429153442 c-0.07000000029802322,0 -0.12999999523162842,0 -0.20000000298023224,0 c-1.5,-0.10000000149011612 -3.809999942779541,0.3799999952316284 -4.800000190734863,0.7099999785423279 c-0.9200000166893005,0.3100000023841858 -1.6299999952316284,0.18000000715255737 -1.7400000095367432,0.1599999964237213 c0.9100000262260437,0.1599999964237213 5.159999847412109,7.800000190734863 5.989999771118164,8.670000076293945 C29.078907012939453,10.865001678466797 30.388904571533203,11.854999542236328 32.55890655517578,12.075000762939453 M39.938907623291016,18.625 c-0.3100000023841858,0.550000011920929 -0.7799999713897705,0.9800000190734863 -1.409999966621399,1.2899999618530273 c-0.6299999952316284,0.3100000023841858 -1.340000033378601,0.46000000834465027 -2.119999885559082,0.46000000834465027 c-1.8700000047683716,0 -2.799999952316284,-0.7099999785423279 -2.799999952316284,-2.140000104904175 c0,-0.75 0.23000000417232513,-1.2999999523162842 0.6899999976158142,-1.6699999570846558 c0.46000000834465027,-0.3700000047683716 1.1699999570846558,-0.550000011920929 2.109999895095825,-0.550000011920929 c1.2999999523162842,0 2.4800000190734863,0.3400000035762787 3.5299999713897705,1.0199999809265137 V18.625 z" id="svg_17"/>
	</g>
</g></g></svg>