<svg width="191.00000000000003" height="27.000000000000004" xmlns="http://www.w3.org/2000/svg">

 <g>
  <title>background</title>
  <rect fill="#333333" id="canvas_background" height="29" width="193" y="-1" x="-1"/>
 </g>
 <g>
  <title>Layer 1</title>
  <g id="svg_1" fill="#fff">
   <g id="svg_2">
    <path id="svg_3" d="m83.524155,23.393547c-1.4,-0.72 -2.48,-1.75 -3.24,-3.08c-0.76,-1.33 -1.15,-2.9 -1.15,-4.7c0,-1.8 0.38,-3.38 1.15,-4.72c0.76,-1.34 1.84,-2.37 3.24,-3.1c1.4,-0.72 3.01,-1.08 4.83,-1.08c2.36,0 4.32,0.54 5.9,1.61l0,3.51c-0.72,-0.6 -1.53,-1.04 -2.45,-1.3c-0.92,-0.27 -1.96,-0.4 -3.13,-0.4c-1.77,0 -3.17,0.49 -4.2,1.47c-1.03,0.98 -1.55,2.32 -1.55,4.01c0,1.71 0.52,3.05 1.56,4.03c1.04,0.98 2.44,1.47 4.19,1.47c1.2,0 2.27,-0.14 3.19,-0.43c0.93,-0.28 1.79,-0.74 2.58,-1.38l0,3.51c-1.5,1.11 -3.53,1.66 -6.09,1.66c-1.82,0.01 -3.43,-0.36 -4.83,-1.08z"/>
    <path id="svg_4" d="m97.014155,23.393547c-0.9,-0.72 -1.35,-1.71 -1.35,-2.96c0,-1.3 0.43,-2.31 1.29,-3.03c0.86,-0.72 2.08,-1.08 3.66,-1.08c0.7,0 1.36,0.07 2,0.22c0.63,0.15 1.19,0.35 1.68,0.61l0,-0.29c0,-0.73 -0.26,-1.27 -0.78,-1.61c-0.52,-0.34 -1.32,-0.51 -2.39,-0.51c-1.43,0 -2.75,0.27 -3.95,0.8l0,-2.68c0.52,-0.23 1.19,-0.42 2.02,-0.57c0.83,-0.15 1.66,-0.23 2.49,-0.23c2.11,0 3.69,0.43 4.73,1.3c1.04,0.87 1.56,2.08 1.56,3.64l0,7.12l-3.46,0l0,-1.07c-0.99,0.96 -2.32,1.44 -4,1.44c-1.43,-0.01 -2.6,-0.38 -3.5,-1.1zm6.13,-1.69c0.49,-0.23 0.87,-0.54 1.15,-0.95l0,-1.17c-0.83,-0.55 -1.74,-0.83 -2.73,-0.83c-0.68,0 -1.21,0.14 -1.57,0.43c-0.37,0.28 -0.55,0.7 -0.55,1.26c0,0.52 0.18,0.92 0.54,1.19c0.36,0.28 0.87,0.41 1.54,0.41c0.59,0 1.13,-0.12 1.62,-0.34z"/>
    <path id="svg_5" d="m110.404155,6.103547l3.68,0l0,18.01l-3.68,0l0,-18.01z"/>
    <path id="svg_6" d="m118.084155,22.853547c-1.28,-1.08 -1.93,-2.6 -1.93,-4.55c0,-1.93 0.57,-3.46 1.72,-4.58c1.15,-1.12 2.78,-1.68 4.91,-1.68c1.4,0 2.58,0.26 3.56,0.78c0.97,0.52 1.71,1.24 2.22,2.16c0.5,0.92 0.76,1.95 0.76,3.11l0,1.49l-9.65,0c0.26,1.5 1.66,2.24 4.19,2.24c0.75,0 1.52,-0.07 2.32,-0.2c0.8,-0.13 1.49,-0.31 2.07,-0.54l0,2.58c-0.57,0.24 -1.3,0.44 -2.19,0.58c-0.89,0.15 -1.79,0.22 -2.68,0.22c-2.26,0.02 -4.02,-0.52 -5.3,-1.61zm7.75,-5.66c-0.05,-0.78 -0.34,-1.38 -0.88,-1.82c-0.54,-0.43 -1.28,-0.65 -2.22,-0.65c-0.93,0 -1.66,0.22 -2.19,0.66c-0.54,0.44 -0.83,1.04 -0.88,1.8l6.17,0l0,0.01z"/>
    <path id="svg_7" d="m131.364155,12.413547l3.56,0l0,1.44c0.54,-0.6 1.17,-1.05 1.91,-1.35c0.74,-0.3 1.51,-0.45 2.33,-0.45c1.59,0 2.78,0.43 3.57,1.28c0.79,0.85 1.18,2 1.18,3.45l0,7.34l-3.68,0l0,-6.92c0,-1.51 -0.7,-2.27 -2.1,-2.27c-0.62,0 -1.19,0.15 -1.73,0.45c-0.54,0.3 -0.99,0.74 -1.36,1.33l0,7.41l-3.68,0l0,-11.71z"/>
    <path id="svg_8" d="m148.854155,23.713547c-0.93,-0.51 -1.67,-1.23 -2.19,-2.17c-0.53,-0.93 -0.79,-2.02 -0.79,-3.25c0,-1.22 0.26,-2.3 0.78,-3.24c0.52,-0.94 1.25,-1.68 2.19,-2.21c0.94,-0.53 2.01,-0.79 3.22,-0.79c0.88,0 1.68,0.12 2.41,0.37c0.73,0.24 1.35,0.59 1.85,1.05l0,-7.37l3.68,0l0,18.01l-3.56,0l0,-1.27c-0.6,0.57 -1.26,0.98 -1.96,1.24c-0.71,0.26 -1.52,0.39 -2.42,0.39c-1.21,0.01 -2.28,-0.25 -3.21,-0.76zm6.19,-2.7c0.59,-0.41 1.02,-0.95 1.28,-1.63l0,-2.22c-0.23,-0.67 -0.65,-1.21 -1.26,-1.62c-0.61,-0.41 -1.3,-0.62 -2.06,-0.62c-0.99,0 -1.8,0.31 -2.43,0.93c-0.63,0.62 -0.94,1.43 -0.94,2.44c0,1.01 0.31,1.82 0.94,2.43c0.63,0.61 1.43,0.91 2.43,0.91c0.77,-0.01 1.44,-0.21 2.04,-0.62z"/>
    <path id="svg_9" d="m163.064155,23.393547c-0.9,-0.72 -1.35,-1.71 -1.35,-2.96c0,-1.3 0.43,-2.31 1.29,-3.03c0.86,-0.72 2.08,-1.08 3.66,-1.08c0.7,0 1.36,0.07 2,0.22c0.63,0.15 1.19,0.35 1.68,0.61l0,-0.29c0,-0.73 -0.26,-1.27 -0.78,-1.61c-0.52,-0.34 -1.32,-0.51 -2.39,-0.51c-1.43,0 -2.75,0.27 -3.95,0.8l0,-2.68c0.52,-0.23 1.19,-0.42 2.02,-0.57c0.83,-0.15 1.66,-0.23 2.49,-0.23c2.11,0 3.69,0.43 4.73,1.3c1.04,0.87 1.56,2.08 1.56,3.64l0,7.12l-3.46,0l0,-1.07c-0.99,0.96 -2.32,1.44 -4,1.44c-1.44,-0.01 -2.6,-0.38 -3.5,-1.1zm6.12,-1.69c0.49,-0.23 0.87,-0.54 1.15,-0.95l0,-1.17c-0.83,-0.55 -1.74,-0.83 -2.73,-0.83c-0.68,0 -1.21,0.14 -1.57,0.43c-0.37,0.28 -0.55,0.7 -0.55,1.26c0,0.52 0.18,0.92 0.54,1.19c0.36,0.28 0.87,0.41 1.54,0.41c0.59,0 1.14,-0.12 1.62,-0.34z"/>
    <path id="svg_10" d="m176.454155,12.413547l3.56,0l0,1.68c0.47,-0.57 1.13,-1 1.97,-1.3c0.84,-0.3 1.8,-0.45 2.88,-0.45l0,2.8c-1.12,0 -2.11,0.17 -2.96,0.51c-0.85,0.34 -1.44,0.86 -1.77,1.56l0,6.9l-3.68,0l0,-11.7z"/>
   </g>
   <g id="svg_11">
    <path id="svg_12" d="m4.864155,6.713547l2.49,0l0,7.31l8.9,0l0,-7.31l2.47,0l0,17.04l-2.49,0l0,-7.63l-8.9,0l0,7.63l-2.49,0l0,-17.04l0.02,0z"/>
    <path id="svg_13" d="m23.244155,22.493547c-1.23,-1.08 -1.84,-2.6 -1.84,-4.57c0,-1.92 0.55,-3.44 1.64,-4.56c1.1,-1.12 2.66,-1.68 4.69,-1.68c1.35,0 2.49,0.26 3.44,0.77c0.94,0.51 1.65,1.22 2.13,2.12c0.48,0.9 0.72,1.93 0.72,3.08l0,1.22l-10.28,0c0.08,1.11 0.55,1.93 1.4,2.47c0.85,0.54 2.01,0.82 3.47,0.82c0.75,0 1.5,-0.07 2.27,-0.21c0.76,-0.14 1.44,-0.32 2.02,-0.55l0,1.97c-0.52,0.21 -1.21,0.39 -2.06,0.52c-0.85,0.14 -1.69,0.21 -2.52,0.21c-2.16,0.01 -3.85,-0.53 -5.08,-1.61zm8.47,-5.35c-0.03,-1.11 -0.39,-1.96 -1.08,-2.57c-0.69,-0.61 -1.67,-0.91 -2.94,-0.91c-1.23,0 -2.19,0.32 -2.88,0.95c-0.68,0.63 -1.04,1.48 -1.07,2.53l7.97,0z"/>
    <path id="svg_14" d="m50.584155,5.733547l2.46,0l0,18.01l-2.46,0l0,-18.01z"/>
    <path id="svg_15" d="m57.974155,23.093547c-0.64,-0.68 -0.96,-1.65 -0.96,-2.9l0,-6.24l-1.78,0l0,-1.9l1.78,0l0,-3.51l2.49,0l0,3.51l2.88,0l0,1.9l-2.88,0l0,6.07c0,0.78 0.15,1.33 0.45,1.66c0.3,0.33 0.85,0.49 1.65,0.49c0.47,0 0.94,-0.11 1.41,-0.32l0,1.95c-0.62,0.21 -1.38,0.32 -2.29,0.32c-1.19,-0.01 -2.11,-0.35 -2.75,-1.03z"/>
    <path id="svg_16" d="m65.324155,5.733547l2.46,0l0,7.92c1.12,-1.32 2.62,-1.97 4.48,-1.97c1.56,0 2.72,0.41 3.49,1.24c0.76,0.83 1.15,1.94 1.15,3.34l0,7.48l-2.46,0l0,-7.24c0,-1.9 -0.91,-2.85 -2.73,-2.85c-0.78,0 -1.51,0.18 -2.18,0.55c-0.67,0.37 -1.26,0.92 -1.74,1.67l0,7.87l-2.47,0l0,-18.01z"/>
    <path id="svg_17" d="m37.404155,13.803547c0,0 1.4,0.05 2.02,-0.1c0.61,-0.11 1.24,-0.17 1.88,-0.17c1.2,0 2.08,0.22 2.64,0.67c0.56,0.45 0.84,1.13 0.84,2.06l0,0.61c-1.12,-0.65 -2.49,-0.97 -4.09,-0.97c-1.51,0 -2.68,0.35 -3.5,1.06c-0.82,0.71 -1.23,1.71 -1.23,3.01c0,1.24 0.43,2.21 1.28,2.94c0.85,0.72 1.99,1.08 3.4,1.08c0.99,0 1.83,-0.14 2.52,-0.43c0.69,-0.28 1.29,-0.7 1.79,-1.26l0,1.32l2.32,0l0,-7.24c0,-1.51 -0.47,-2.69 -1.4,-3.55c-0.93,-0.85 -2.37,-1.27 -4.3,-1.28c-0.17,0 -0.38,0.01 -0.38,0.01c-0.12,0.01 -0.25,0.01 -0.37,0.01c-0.19,-0.01 -0.39,-0.03 -0.62,-0.03c-0.81,-0.02 -2.11,-0.47 -2.6,-0.63c-2.2,-1.03 -3.49,-3 -4.03,-3.5l-3.89,-3.59c2.35,1.24 5.15,3.61 5.28,3.76c0.41,0.46 3.03,2.24 3.03,2.24s1.3,0.75 2.5,0.81c1.61,0.07 2.18,-0.66 2.18,-0.66c0.6,-0.81 -0.29,-2.39 -1.1,-3.69c-1.63,-2.62 -3.05,-3.21 -3.05,-3.21l0,0c-1.2,-0.73 -2.92,-1.35 -5.08,-1.33c-0.07,0 -0.13,0 -0.2,0c-1.5,-0.1 -3.81,0.38 -4.8,0.71c-0.92,0.31 -1.63,0.18 -1.74,0.16c0.91,0.16 5.16,7.8 5.99,8.67c1.23,1.31 2.54,2.3 4.71,2.52m7.38,6.55c-0.31,0.55 -0.78,0.98 -1.41,1.29c-0.63,0.31 -1.34,0.46 -2.12,0.46c-1.87,0 -2.8,-0.71 -2.8,-2.14c0,-0.75 0.23,-1.3 0.69,-1.67c0.46,-0.37 1.17,-0.55 2.11,-0.55c1.3,0 2.48,0.34 3.53,1.02l0,1.59z" fill="#47AA4E" class="leaf"/>
   </g>
  </g>
 </g>
</svg>